<svg width="33" height="47" viewBox="0 0 33 47" fill="none" xmlns="http://www.w3.org/2000/svg">
<path fill-rule="evenodd" clip-rule="evenodd" d="M32.8156 11.571C32.3434 3.2169 25.7331 -0.181326 19.2644 0.0074244C17.2013 0.0074244 14.7124 0.393362 10.8262 0.995758C10.621 1.02763 10.412 1.06003 10.1988 1.09305C9.79927 1.15482 9.35333 1.19961 8.87521 1.24753C6.58458 1.47711 3.55687 1.78065 1.36927 4.3969C0.343229 5.62399 0 7.08711 0 8.40867C0.0126042 17.2194 0.00510416 33.0689 0.0015625 39.0873C0.921354 35.4608 6.16114 34.1115 11.1277 32.8325C11.4016 32.762 11.6745 32.6917 11.9458 32.6213C27.5005 28.583 33.4532 22.8513 32.8156 11.571Z" fill="#1D1D1B"/>
<path d="M0 41.4945C0 44.3735 3.06906 46.875 5.90208 46.875C9.34896 46.875 11.9458 44.0431 11.9458 41.4945V32.6212C11.6745 32.6917 11.4016 32.762 11.1277 32.8325C6.16114 34.1115 0.921354 35.4607 0.0015625 39.0873C0.000625 40.6024 0 41.4945 0 41.4945Z" fill="#1D1D1B"/>
</svg>
